<svg width="100%" xmlns="http://www.w3.org/2000/svg" fill="#9B2142" viewBox="0.79 0.54 106.02 151.44">
	<path d="M11.6595 88.2396C14.4095 88.2396 17.1595 88.2896 19.9095 88.2196C21.4295 88.1796 21.9095 88.7997 21.9295 90.2897C21.9995 94.9497 21.7295 99.6796 22.4595 104.24C24.3595 116.22 31.3095 124.79 42.4595 129.04C57.7895 134.87 73.6695 128.76 81.7995 114.42C85.2595 108.31 85.8295 101.7 85.8095 94.9197C85.7961 90.453 88.0028 88.2196 92.4295 88.2196C96.3495 88.2196 100.259 88.2296 104.179 88.2196C105.369 88.2196 106.319 88.3196 106.319 89.8996C106.319 98.5396 106.739 107.2 103.859 115.59C99.5495 128.12 91.8095 137.79 80.4095 144.6C70.7995 150.35 60.3695 152.79 49.3695 151.74C35.1695 150.38 23.1495 144.34 13.8095 133.32C7.24948 125.58 2.99948 116.73 1.77948 106.69C1.09948 101.1 1.39948 95.3796 1.42948 89.7196C1.42948 89.2196 2.69948 88.3397 3.41948 88.2897C6.15948 88.1197 8.91948 88.2196 11.6595 88.2196V88.2396Z">
	</path>
	<path d="M53.5002 59.5603C46.6802 59.5603 39.8502 59.5703 33.0302 59.5603C30.3502 59.5603 29.6002 58.8403 29.6402 56.1603C29.7602 47.7203 32.4302 40.6203 40.5602 36.7103C42.3102 35.8703 44.3602 35.3003 46.2902 35.2603C51.9402 35.1303 57.6602 34.8303 63.2302 35.5303C70.2602 36.4103 74.4102 41.3403 76.6102 47.7703C77.4802 50.3103 77.7302 53.1303 77.8902 55.8403C78.0702 58.7203 77.0902 59.5503 74.2102 59.5603C67.3002 59.5803 60.4002 59.5603 53.4902 59.5603H53.5002Z">
	</path>
	<path d="M65.0505 14.0703C65.0005 19.2903 64.0605 24.1003 59.3105 27.3503C54.2905 30.7903 48.0105 28.3903 45.8505 25.3203C41.8205 19.6103 41.2305 13.3403 43.6105 6.88033C45.3005 2.29033 50.3605 -0.119661 55.7005 0.700339C60.9805 1.51034 64.4905 5.28033 65.0305 10.8203C65.1405 11.8903 65.0505 12.9803 65.0505 14.0603V14.0703Z">
	</path>
	<path d="M14.5904 43.8204C10.9304 43.8204 7.2704 43.7903 3.6104 43.8303C1.6204 43.8503 0.8604 42.9904 0.8004 40.9704C0.5404 32.6704 7.1404 26.0404 14.6504 26.7904C17.8604 27.1104 21.1304 26.8903 24.3704 27.0203C29.1004 27.2203 31.7804 30.3504 33.8304 34.1004C34.1404 34.6804 33.6304 35.9704 33.1304 36.6704C31.8104 38.5604 30.4004 40.4203 28.7904 42.0603C27.9704 42.9003 26.6804 43.6803 25.5604 43.7403C21.9104 43.9503 18.2504 43.8204 14.5904 43.8204Z">
	</path>
	<path d="M92.9903 43.6097C89.1703 43.6097 85.3403 43.7097 81.5203 43.5397C80.5903 43.4997 79.5203 42.7297 78.8203 41.9997C77.2903 40.3897 76.1102 38.4297 74.5102 36.9097C73.1002 35.5697 73.1302 34.4597 74.1202 33.0297C76.7702 29.1897 80.3002 26.7897 85.0602 26.6797C88.4602 26.5997 91.8702 26.5997 95.2602 26.8197C102.72 27.2997 107.12 34.9597 106.8 41.8197C106.72 43.4897 105.74 43.6297 104.46 43.6297C100.64 43.6097 96.8103 43.6297 92.9903 43.6297V43.6097Z">
	</path>
	<path d="M11.6901 68.8498C14.3501 68.8498 17.0201 68.8997 19.6801 68.8297C21.2101 68.7897 21.9701 69.1998 21.9301 70.9198C21.8301 74.5798 21.8601 78.2398 21.9201 81.9098C21.9401 83.2798 21.4701 83.8697 20.0501 83.8597C14.4701 83.8197 8.90006 83.8097 3.32006 83.8597C1.78006 83.8797 1.27007 83.2398 1.30007 81.7798C1.35007 78.1998 1.36007 74.6198 1.30007 71.0398C1.27007 69.4498 1.83007 68.7797 3.47007 68.8297C6.21007 68.9097 8.96006 68.8498 11.7101 68.8498H11.6901Z">
	</path>
	<path d="M106.3 68.8697C106.3 73.6797 106.36 77.9997 106.22 82.3097C106.2 82.8297 105.12 83.7497 104.52 83.7597C98.8597 83.8697 93.1897 83.8097 87.5197 83.8397C86.1797 83.8397 85.7897 83.1997 85.7997 81.9897C85.8297 78.2397 85.7397 74.4897 85.8697 70.7397C85.8897 70.0997 86.7397 68.9597 87.2197 68.9497C93.4497 68.8297 99.6797 68.8697 106.29 68.8697H106.3Z">
	</path>
	<path d="M26.7999 11.2504C25.5899 13.7904 24.8499 16.7604 23.0499 18.7804C19.7599 22.4804 13.8899 21.5804 11.7999 17.1104C9.9899 13.2404 9.3599 8.98039 11.4999 4.88039C13.1499 1.73039 15.7999 0.640384 19.9499 1.22038C22.6999 1.61038 24.9499 3.72038 25.6399 6.75038C25.9499 8.12038 26.0599 9.5304 26.2599 10.9204C26.4399 11.0304 26.6199 11.1404 26.7999 11.2404V11.2504Z">
	</path>
	<path d="M81.1797 10.46C81.4997 3.73002 85.0197 0.420044 91.1497 1.20004C94.0697 1.57004 95.9297 3.38002 96.6997 5.93002C97.9097 9.94002 97.6497 14 95.3397 17.66C93.7297 20.21 91.2997 21.27 88.2897 20.84C85.4797 20.44 83.5897 18.77 82.6597 16.18C81.9897 14.33 81.6597 12.37 81.1797 10.45V10.46Z">
	</path>
</svg>
