<svg width="100%" viewBox="0 0 579 152" fill="none" xmlns="http://www.w3.org/2000/svg">
	<path d="M388.85 124.57C388.41 123.4 387.65 122.24 387.59 121.04C387.29 115.14 387.06 109.23 387.02 103.32C386.91 86.0001 386.8 68.6801 386.94 51.3701C386.96 48.6301 388.24 45.9101 389.05 42.7401C388.75 42.5201 387.91 41.9001 386.43 40.8201C388.84 38.8501 391.1 37.0101 393.36 35.1701C393.19 34.8501 393.03 34.5301 392.86 34.2001C390.59 33.9401 388.29 33.8001 386.06 33.3501C385.13 33.1601 383.69 32.3901 383.6 31.7301C383.42 30.3901 383.93 28.9501 385.73 28.5801C392.23 27.2601 398.67 25.4901 405.24 24.6501C411.74 23.8201 418.31 24.2201 424.86 25.3001C435.57 27.0601 441.5 33.6901 444.51 43.5101C450.28 62.3101 442.58 79.6501 424.07 88.9701C418.83 91.6101 413.19 93.5101 407.64 95.4801C405.71 96.1701 405.07 97.0601 405.04 99.0301C404.93 107.27 404.67 115.51 404.47 123.75C404.46 124.17 404.6 124.71 404.39 124.97C403.81 125.69 403.17 126.5 402.36 126.84C402.01 126.99 400.97 126.18 400.66 125.59C399.18 122.8 397.84 119.93 396.43 117.1C396.07 116.39 395.63 115.72 394.89 114.45C393.06 118.08 391.48 121.21 389.91 124.33C389.55 124.41 389.19 124.49 388.83 124.57H388.85ZM405 62.1301C404.89 62.1301 404.77 62.1301 404.66 62.1301C404.66 66.2101 404.66 70.2901 404.66 74.3701C404.66 77.3401 404.92 77.5601 407.87 76.7301C409.71 76.2201 411.53 75.6201 413.3 74.9001C419.39 72.4401 424.08 68.4301 427.02 62.4601C431.59 53.1701 426.82 43.8101 417.07 43.0901C413.21 42.8001 409.64 43.9501 406.32 45.7701C405.64 46.1401 405.07 47.3301 405.05 48.1501C404.93 52.8101 404.99 57.4701 404.99 62.1301H405Z" fill="#9B2142" />
	<path d="M11.6595 88.2396C14.4095 88.2396 17.1595 88.2896 19.9095 88.2196C21.4295 88.1796 21.9095 88.7997 21.9295 90.2897C21.9995 94.9497 21.7295 99.6796 22.4595 104.24C24.3595 116.22 31.3095 124.79 42.4595 129.04C57.7895 134.87 73.6695 128.76 81.7995 114.42C85.2595 108.31 85.8295 101.7 85.8095 94.9197C85.7961 90.453 88.0028 88.2196 92.4295 88.2196C96.3495 88.2196 100.259 88.2296 104.179 88.2196C105.369 88.2196 106.319 88.3196 106.319 89.8996C106.319 98.5396 106.739 107.2 103.859 115.59C99.5495 128.12 91.8095 137.79 80.4095 144.6C70.7995 150.35 60.3695 152.79 49.3695 151.74C35.1695 150.38 23.1495 144.34 13.8095 133.32C7.24948 125.58 2.99948 116.73 1.77948 106.69C1.09948 101.1 1.39948 95.3796 1.42948 89.7196C1.42948 89.2196 2.69948 88.3397 3.41948 88.2897C6.15948 88.1197 8.91948 88.2196 11.6595 88.2196V88.2396Z" fill="#9B2142" />
	<path d="M500.849 120.16C500.529 122.33 500.289 124 500.109 125.28C498.469 125.61 497.219 126.1 496.009 126.03C495.249 125.99 494.299 125.26 493.839 124.57C489.559 118.12 485.299 111.65 481.199 105.09C480.069 103.28 479.069 102.7 477.009 103.61C470.569 106.45 471.589 104.69 471.309 111.98C471.159 115.98 471.049 119.97 470.909 123.97C470.909 124.21 470.759 124.44 470.609 124.88C466.869 124.8 467.159 120.56 464.409 119.02C463.659 120.83 462.999 122.67 462.139 124.4C461.759 125.17 460.949 125.72 460.339 126.38C459.779 125.5 458.819 124.65 458.729 123.72C458.409 120.41 458.309 117.07 458.249 113.75C458.009 100.09 457.779 86.4303 457.639 72.7803C457.609 69.9603 457.869 67.1203 458.229 64.3203C458.509 62.1403 457.909 60.6103 455.949 59.6103C455.439 59.3503 454.999 58.9503 454.319 58.4603C456.579 56.3003 458.529 54.4403 460.779 52.2803C458.759 51.2303 457.109 50.4803 455.589 49.5303C454.929 49.1203 454.029 48.1403 454.159 47.6603C454.359 46.9103 455.229 46.0203 455.999 45.7703C466.569 42.3903 477.419 40.7903 488.489 41.6203C494.789 42.0903 500.979 43.3103 506.229 47.4803C513.149 52.9703 514.579 60.2103 513.219 68.3203C511.509 78.5803 505.449 86.3903 498.289 93.4403C496.779 94.9303 496.549 96.0803 497.449 97.9703C501.039 105.57 504.479 113.24 507.919 120.91C508.249 121.65 508.179 122.57 508.299 123.41C507.469 123.21 506.589 123.13 505.839 122.78C504.269 122.05 502.769 121.18 500.859 120.17L500.849 120.16ZM472.709 88.2003C473.129 88.3103 473.299 88.4103 473.439 88.3803C473.759 88.3303 474.089 88.2503 474.389 88.1203C480.509 85.3503 486.239 81.8903 490.699 76.8503C492.899 74.3603 494.649 71.2803 495.919 68.1903C497.359 64.7003 495.179 60.7303 491.619 60.0103C485.359 58.7403 479.079 59.1203 472.709 60.5303V88.2003Z" fill="#9B2142" />
	<path d="M317.75 52.7901C319.63 50.6601 321.71 48.7501 319.15 45.5201C323.44 44.6601 327.19 43.6801 331.01 43.1701C338.73 42.1401 346.47 42.2701 354.07 44.1301C364.13 46.5901 370.61 53.0901 373.97 62.6901C379.2 77.6201 377.43 92.0401 370.07 105.83C365.77 113.88 358.21 118.27 350.41 122.14C344.42 125.11 338.02 126.91 331.37 127.85C329.41 128.13 328.73 127.6 328.55 125.6C328.1 120.5 328 120.46 322.88 121.43C320.85 121.81 320.04 121.34 320.07 119.09C320.3 101.52 320.46 83.9601 320.55 66.3901C320.55 64.7301 319.85 63.0801 319.76 61.4001C319.72 60.6701 320.22 59.6701 320.8 59.1901C322.71 57.6101 322.39 56.3901 320.51 55.1201C319.63 54.5201 318.87 53.7401 317.74 52.7801L317.75 52.7901ZM336.75 110.48C344.25 108.17 350.54 104.79 354.95 98.6501C360.47 90.9701 361.46 82.2101 360.2 73.1801C359.51 68.2701 356.73 64.4501 352.19 62.0401C347.05 59.3101 341.78 60.8601 336.55 61.5101C336.06 61.5701 335.35 62.8601 335.36 63.5701C335.52 77.8901 335.76 92.2001 336.03 106.52C336.05 107.73 336.45 108.94 336.74 110.48H336.75Z" fill="#9B2142" />
	<path d="M556.071 49.72C557.711 48.81 558.961 48.22 560.101 47.46C561.471 46.54 562.551 46.49 563.341 48.12C564.211 49.91 565.461 50.3 567.191 49.29C568.651 48.44 569.631 49.1 570.551 50.3C573.931 54.69 575.881 59.71 576.941 65.05C579.801 79.53 579.871 93.93 575.681 108.25C573.331 116.28 568.321 121.58 560.671 124.78C553.021 127.98 545.261 128.6 537.221 126.8C530.741 125.35 527.361 120.65 524.961 115.01C520.851 105.37 519.731 95.17 520.631 84.89C521.321 76.89 522.701 68.89 524.531 61.07C526.691 51.87 533.361 46.56 542.151 44.09C545.851 43.05 549.841 42.99 553.701 42.54C555.531 42.32 556.261 43.2 556.091 45.04C555.971 46.41 556.071 47.8 556.071 49.72ZM563.151 85.64C563.221 76.77 562.291 71.46 559.831 66.56C558.081 63.07 555.491 60.39 551.461 59.7C547.061 58.94 543.621 61.02 541.011 66.11C536.381 75.14 535.391 84.88 536.341 94.79C536.741 98.95 537.851 103.13 539.271 107.07C541.021 111.93 545.241 113.17 550.041 112.94C554.681 112.71 557.851 110.55 559.471 106.09C562.061 98.96 563.221 91.61 563.161 85.65L563.151 85.64Z" fill="#9B2142" />
	<path d="M284.75 50.8598C286.02 48.3898 286.85 46.5799 287.88 44.8899C288.21 44.3399 289.47 43.6698 289.66 43.8298C292.13 45.8998 294.61 45.6399 297.46 43.4999C302.49 70.7399 307.41 97.4199 312.52 125.07C309.82 122.47 308 123.99 306.04 124.99C305.55 125.24 304.58 125.08 304.11 124.72C303.02 123.89 302.22 122.26 301.09 122.04C300.21 121.87 299.01 123.35 297.67 124.29C296.31 119.44 294.88 114.79 293.73 110.07C293.23 108.01 292.46 107.13 290.2 107.35C283.74 107.98 277.26 108.34 270.81 109.03C269.97 109.12 268.86 110.43 268.57 111.38C267.26 115.76 266.24 120.23 265.02 124.64C264.8 125.45 264.16 126.14 263.71 126.89C263.01 126.38 262.29 125.88 261.62 125.34C261.37 125.14 261.22 124.81 261.01 124.55C259.71 122.877 258.233 122.697 256.58 124.01C255.8 124.62 255.03 125.39 254.13 125.69C252.56 126.2 251.09 124.39 251.46 122.61C255.94 101.19 260.41 79.7599 264.88 58.3399C265.66 54.5999 266.46 50.8499 267.19 47.0999C267.49 45.5699 268.16 44.7598 269.74 45.4898C272.05 46.5598 273.93 46.0099 275.5 44.1199C277.04 42.2699 278.22 42.6099 279.54 44.4799C281.01 46.5599 282.75 48.4398 284.74 50.8598H284.75ZM274.28 94.1098C279.07 93.6998 283.87 93.2599 288.67 92.8899C290.12 92.7799 290.46 92.2398 290.13 90.7998C288.26 82.6298 286.45 74.4499 284.7 66.2599C284.4 64.8599 284.08 63.9198 282.37 64.1098C280.69 64.2898 278.78 63.7699 278.43 66.3899C278.15 68.4399 277.58 70.4499 277.14 72.4799C275.73 78.9699 274.31 85.4499 272.9 91.9399C272.65 93.1099 272.29 94.3999 274.28 94.1299V94.1098Z" fill="#9B2142" />
	<path d="M155.571 27.1597C160.591 31.3797 162.041 27.3497 164.201 24.1797C166.171 27.1697 167.871 29.7497 169.821 32.7097C171.401 30.2797 172.761 28.1997 174.121 26.1197C174.381 26.2197 174.651 26.3297 174.911 26.4297C174.991 27.2097 175.151 27.9797 175.141 28.7597C174.931 43.7497 174.721 58.7397 174.471 73.7297C174.281 84.8097 174.061 95.8797 173.781 106.95C173.731 108.91 174.391 109.63 176.361 109.54C182.181 109.28 188.011 109.14 193.841 108.96C194.591 108.94 195.431 108.74 196.071 109C196.851 109.32 197.761 109.94 198.041 110.65C198.211 111.08 197.441 112.23 196.831 112.55C195.061 113.46 193.151 114.1 191.321 114.88C190.431 115.26 189.571 115.7 188.621 116.81C191.471 117.95 194.311 119.08 197.521 120.36C196.321 122.1 195.271 123.63 194.141 125.28C194.801 126.01 195.431 126.72 196.271 127.65C195.461 127.8 194.931 127.97 194.401 128C185.421 128.38 176.431 128.69 167.451 129.13C165.091 129.25 164.171 128.6 164.921 126.17C165.461 124.41 164.751 123.37 162.831 123.56C160.261 123.81 159.591 122.53 160.081 120.31C160.651 117.74 159.841 116.56 157.071 116.92C155.131 117.17 154.981 115.83 155.011 114.35C155.161 104.69 155.341 95.0297 155.401 85.3697C155.501 67.3797 155.521 49.3797 155.581 31.3897C155.581 30.3397 155.581 29.2897 155.581 27.1797L155.571 27.1597Z" fill="#9B2142" />
	<path d="M244.8 113.78C244.53 115.29 244.4 116.35 244.15 117.39C243.72 119.18 243.76 120.61 245.88 121.43C246.34 121.61 246.61 123.09 246.45 123.87C246.17 125.23 246.13 126.94 243.99 127.04C237.59 127.34 231.19 127.72 224.79 128.07C222.3 128.21 219.8 128.35 217.31 128.55C215.69 128.68 214.93 128.11 215.29 126.41C215.38 126 215.41 125.59 215.45 125.17C215.71 122.25 215.51 122.06 212.49 122.34C209.43 122.62 207.917 121.27 207.95 118.29C208.17 100.71 208.39 83.14 208.6 65.56C208.6 64.81 208.88 63.87 208.54 63.34C206.11 59.58 209.08 57.93 211.27 55.94C211.44 55.78 211.54 55.53 211.9 54.97C210.56 54.18 209.32 53.3 207.95 52.68C206.41 51.98 206 51.17 206.78 49.58C207.3 48.51 207.39 47.23 207.74 45.74C209.28 45.58 211.07 45.33 212.86 45.22C221.66 44.66 230.47 44.14 239.27 43.61C239.69 43.58 240.1 43.59 240.52 43.55C243.77 43.28 244.72 44.02 244.78 47.3C244.79 48.01 244.08 48.92 243.45 49.42C241.72 50.8 239.86 52 237.49 53.67C240.14 54.64 242.17 55.38 244.22 56.13C244.36 58.46 243.31 59.3 241.13 59.41C236.65 59.65 232.17 60.11 227.69 60.45C225.65 60.61 224.62 61.37 224.66 63.7C224.74 68.36 224.57 73.03 224.35 77.69C224.26 79.69 224.97 80.33 226.93 80.23C231.34 80.01 235.75 79.94 240.17 79.83C240.97 79.81 241.76 79.83 242.99 79.83C242.52 81.63 242.24 83.08 241.75 84.45C241.29 85.74 241.19 86.69 242.78 87.16C244.2 87.58 244.99 88.63 244.25 89.98C243.8 90.81 242.74 91.72 241.85 91.83C236.82 92.48 231.77 92.96 226.72 93.38C225.08 93.52 224.62 94.23 224.68 95.77C224.91 101.18 225.11 106.59 225.19 112C225.22 113.9 226.04 114.45 227.79 114.36C232.2 114.12 236.61 113.95 241.02 113.78C242.16 113.74 243.3 113.78 244.78 113.78H244.8Z" fill="#9B2142" />
	<path d="M53.5002 59.5603C46.6802 59.5603 39.8502 59.5703 33.0302 59.5603C30.3502 59.5603 29.6002 58.8403 29.6402 56.1603C29.7602 47.7203 32.4302 40.6203 40.5602 36.7103C42.3102 35.8703 44.3602 35.3003 46.2902 35.2603C51.9402 35.1303 57.6602 34.8303 63.2302 35.5303C70.2602 36.4103 74.4102 41.3403 76.6102 47.7703C77.4802 50.3103 77.7302 53.1303 77.8902 55.8403C78.0702 58.7203 77.0902 59.5503 74.2102 59.5603C67.3002 59.5803 60.4002 59.5603 53.4902 59.5603H53.5002Z" fill="#9B2142" />
	<path d="M65.0505 14.0703C65.0005 19.2903 64.0605 24.1003 59.3105 27.3503C54.2905 30.7903 48.0105 28.3903 45.8505 25.3203C41.8205 19.6103 41.2305 13.3403 43.6105 6.88033C45.3005 2.29033 50.3605 -0.119661 55.7005 0.700339C60.9805 1.51034 64.4905 5.28033 65.0305 10.8203C65.1405 11.8903 65.0505 12.9803 65.0505 14.0603V14.0703Z" fill="#9B2142" />
	<path d="M14.5904 43.8204C10.9304 43.8204 7.2704 43.7903 3.6104 43.8303C1.6204 43.8503 0.8604 42.9904 0.8004 40.9704C0.5404 32.6704 7.1404 26.0404 14.6504 26.7904C17.8604 27.1104 21.1304 26.8903 24.3704 27.0203C29.1004 27.2203 31.7804 30.3504 33.8304 34.1004C34.1404 34.6804 33.6304 35.9704 33.1304 36.6704C31.8104 38.5604 30.4004 40.4203 28.7904 42.0603C27.9704 42.9003 26.6804 43.6803 25.5604 43.7403C21.9104 43.9503 18.2504 43.8204 14.5904 43.8204Z" fill="#9B2142" />
	<path d="M92.9903 43.6097C89.1703 43.6097 85.3403 43.7097 81.5203 43.5397C80.5903 43.4997 79.5203 42.7297 78.8203 41.9997C77.2903 40.3897 76.1102 38.4297 74.5102 36.9097C73.1002 35.5697 73.1302 34.4597 74.1202 33.0297C76.7702 29.1897 80.3002 26.7897 85.0602 26.6797C88.4602 26.5997 91.8702 26.5997 95.2602 26.8197C102.72 27.2997 107.12 34.9597 106.8 41.8197C106.72 43.4897 105.74 43.6297 104.46 43.6297C100.64 43.6097 96.8103 43.6297 92.9903 43.6297V43.6097Z" fill="#9B2142" />
	<path d="M11.6901 68.8498C14.3501 68.8498 17.0201 68.8997 19.6801 68.8297C21.2101 68.7897 21.9701 69.1998 21.9301 70.9198C21.8301 74.5798 21.8601 78.2398 21.9201 81.9098C21.9401 83.2798 21.4701 83.8697 20.0501 83.8597C14.4701 83.8197 8.90006 83.8097 3.32006 83.8597C1.78006 83.8797 1.27007 83.2398 1.30007 81.7798C1.35007 78.1998 1.36007 74.6198 1.30007 71.0398C1.27007 69.4498 1.83007 68.7797 3.47007 68.8297C6.21007 68.9097 8.96006 68.8498 11.7101 68.8498H11.6901Z" fill="#9B2142" />
	<path d="M106.3 68.8697C106.3 73.6797 106.36 77.9997 106.22 82.3097C106.2 82.8297 105.12 83.7497 104.52 83.7597C98.8597 83.8697 93.1897 83.8097 87.5197 83.8397C86.1797 83.8397 85.7897 83.1997 85.7997 81.9897C85.8297 78.2397 85.7397 74.4897 85.8697 70.7397C85.8897 70.0997 86.7397 68.9597 87.2197 68.9497C93.4497 68.8297 99.6797 68.8697 106.29 68.8697H106.3Z" fill="#9B2142" />
	<path d="M26.7999 11.2504C25.5899 13.7904 24.8499 16.7604 23.0499 18.7804C19.7599 22.4804 13.8899 21.5804 11.7999 17.1104C9.9899 13.2404 9.3599 8.98039 11.4999 4.88039C13.1499 1.73039 15.7999 0.640384 19.9499 1.22038C22.6999 1.61038 24.9499 3.72038 25.6399 6.75038C25.9499 8.12038 26.0599 9.5304 26.2599 10.9204C26.4399 11.0304 26.6199 11.1404 26.7999 11.2404V11.2504Z" fill="#9B2142" />
	<path d="M81.1797 10.46C81.4997 3.73002 85.0197 0.420044 91.1497 1.20004C94.0697 1.57004 95.9297 3.38002 96.6997 5.93002C97.9097 9.94002 97.6497 14 95.3397 17.66C93.7297 20.21 91.2997 21.27 88.2897 20.84C85.4797 20.44 83.5897 18.77 82.6597 16.18C81.9897 14.33 81.6597 12.37 81.1797 10.45V10.46Z" fill="#9B2142" />
</svg>
